<svg xmlns="http://www.w3.org/2000/svg" viewBox="0 0 24 24" width="24" height="24" fill="none" stroke="currentColor" stroke-width="1.5" stroke-linecap="round" stroke-linejoin="round">
  <circle cx="12" cy="12" r="3" />
  <path d="M19.4 15a1.65 1.65 0 0 0 .33 1.82l.06.06a2 2 0 0 1-2.83 2.83l-.06-.06a1.65 1.65 0 0 0-1.82-.33 1.65 1.65 0 0 0-1 1.51V21a2 2 0 0 1-4 0v-.09a1.65 1.65 0 0 0-1-1.51 1.65 1.65 0 0 0-1.82.33l-.06.06a2 2 0 0 1-2.83-2.83l.06-.06a1.65 1.65 0 0 0 .33-1.82 1.65 1.65 0 0 0-1.51-1H3a2 2 0 0 1 0-4h.09c.67 0 1.23-.5 1.51-1A1.65 1.65 0 0 0 4.89 6.6l-.06-.06A2 2 0 0 1 7.66 3.71l.06.06c.48.48 1.14.67 1.82.33.53-.26 1-.72 1-1.51V3a2 2 0 0 1 4 0v.09c0 .79.47 1.25 1 1.51.68.34 1.34.15 1.82-.33l.06-.06A2 2 0 0 1 20.3 6.6l-.06.06c-.33.68-.15 1.34.33 1.82.26.26.71.71 1 .33V9a2 2 0 0 1 0 4h-.09c-.79 0-1.25.47-1.51 1z" />
</svg>
